Coordinates
version=1
nRows=22
nColumns=24
inDegrees=yes

Units are S.I. units (second, meters, Newtons, ...)
Angles are in degrees.

endheader
time	pelvis_tilt	pelvis_list	pelvis_rotation	pelvis_tx	pelvis_ty	pelvis_tz	hip_flexion_r	hip_adduction_r	hip_rotation_r	knee_angle_r	ankle_angle_r	subtalar_angle_r	mtp_angle_r	hip_flexion_l	hip_adduction_l	hip_rotation_l	knee_angle_l	ankle_angle_l	subtalar_angle_l	mtp_angle_l	lumbar_extension	lumbar_bending	lumbar_rotation
      1.50000000	    -12.60538065	     -7.11923675	     11.72226399	      1.72342718	      0.92287881	      0.01715707	     38.82431407	     11.44786885	     -3.82331550	    -32.59991189	     15.17352666	     -3.78963246	      0.00000000	     59.41436946	     -7.71400974	      3.85399174	    -83.24014989	      7.51239449	    -12.90520905	      0.00000000	    -18.62710081	     -4.00413489	      0.68863620
      1.50833333	    -12.68166151	     -7.04782522	     11.90764943	      1.72468257	      0.92301261	      0.01730067	     38.83719418	     11.31863290	     -3.92446034	    -32.63008973	     15.21182074	     -3.92724714	      0.00000000	     59.10157218	     -7.76074142	      3.75096744	    -82.79729067	      7.46778587	    -12.91832067	      0.00000000	    -18.75405524	     -4.22320781	      0.72293570
      1.51666667	    -12.74985130	     -6.98026209	     12.09293130	      1.72588867	      0.92310876	      0.01747708	     38.86872107	     11.18137961	     -4.09182136	    -32.69961890	     15.25338288	     -4.03831680	      0.00000000	     58.77977089	     -7.79514045	      3.67785754	    -82.36173714	      7.47115222	    -12.97554197	      0.00000000	    -18.83536797	     -4.42602077	      0.75471079
      1.52500000	    -12.82246379	     -6.89197085	     12.28811801	      1.72701464	      0.92317512	      0.01763953	     38.93038412	     11.00106559	     -4.31546632	    -32.81643231	     15.32139078	     -4.06576598	      0.00000000	     58.45183390	     -7.77628697	      3.61809871	    -81.93202826	      7.43515692	    -13.24210509	      0.00000000	    -18.93006395	     -4.65853692	      0.79113194
      1.53333333	    -12.89225539	     -6.79044420	     12.48823927	      1.72803493	      0.92317501	      0.01780521	     39.03090925	     10.78615259	     -4.60263136	    -32.99698186	     15.36755841	     -4.09665933	      0.00000000	     58.13184244	     -7.72782851	      3.57234838	    -81.55479210	      7.49729841	    -13.35385410	      0.00000000	    -19.07394844	     -4.89183903	      0.82761248
      1.54166667	    -12.95000374	     -6.68616658	     12.67582325	      1.72895992	      0.92312253	      0.01797732	     39.15433837	     10.55250057	     -4.95163791	    -33.22875724	     15.45535901	     -3.98329701	      0.00000000	     57.80654873	     -7.66329789	      3.53948746	    -81.22666208	      7.46890465	    -13.71295083	      0.00000000	    -19.23653768	     -5.20252502	      0.87621035
      1.55000000	    -13.02374011	     -6.59655544	     12.85686444	      1.72974448	      0.92293962	      0.01814828	     39.34260984	     10.30193023	     -5.39986993	    -33.51132319	     15.51067874	     -3.88469162	      0.00000000	     57.52591845	     -7.58562236	      3.53445162	    -80.98057052	      7.40051245	    -14.09161716	      0.00000000	    -19.40195000	     -5.44856477	      0.91463152
      1.55833333	    -13.11157229	     -6.57589591	     13.03030920	      1.73045300	      0.92262071	      0.01837800	     39.57948986	     10.09423457	     -5.99952286	    -33.78097565	     15.45371104	     -3.94415540	      0.00000000	     57.30860164	     -7.54826660	      3.59575703	    -80.84325722	      7.47230069	    -14.23381877	      0.00000000	    -19.52414531	     -5.62301328	      0.94185395
      1.56666667	    -13.19125383	     -6.53351664	     13.16442892	      1.73105474	      0.92219212	      0.01866317	     39.84433427	      9.86958271	     -6.73818935	    -34.10209209	     15.38474385	     -4.07793617	      0.00000000	     57.08188566	     -7.50891047	      3.63219737	    -80.79301231	      7.43682424	    -14.50864042	      0.00000000	    -19.67934066	     -5.85015982	      0.97729178
      1.57500000	    -13.30912124	     -6.59550064	     13.24882382	      1.73161625	      0.92157693	      0.01912040	     40.15998127	      9.75230998	     -7.70668197	    -34.34379389	     15.18009473	     -4.55646635	      0.00000000	     56.94425556	     -7.57089664	      3.71535459	    -80.83938600	      7.26629570	    -15.08617526	      0.00000000	    -19.78290462	     -6.08294989	      1.01368691
      1.58333333	    -13.43275353	     -6.68643333	     13.29023165	      1.73214468	      0.92084914	      0.01970213	     40.48441516	      9.67149613	     -8.92942124	    -34.54397537	     14.80423623	     -5.36094183	      0.00000000	     56.82391901	     -7.69283267	      3.78626134	    -80.98899868	      7.32746929	    -15.34810684	      0.00000000	    -19.84726209	     -6.29817703	      1.04738386
      1.59166667	    -13.59677518	     -6.82553028	     13.28372591	      1.73261003	      0.91994677	      0.02042958	     40.84928080	      9.64468949	    -10.37691301	    -34.69584683	     14.37576652	     -6.40271533	      0.00000000	     56.76629332	     -7.88178321	      3.84498311	    -81.23077899	      7.42044155	    -15.59529268	      0.00000000	    -19.90392873	     -6.50614641	      1.07995446
      1.60000000	    -13.78022522	     -7.02062771	     13.22879288	      1.73303964	      0.91893577	      0.02128457	     41.21478643	      9.68390816	    -11.98297049	    -34.78301469	     13.92214957	     -7.45534667	      0.00000000	     56.74164412	     -8.14801211	      3.89337858	    -81.54569039	      7.54470195	    -15.91369471	      0.00000000	    -19.87042410	     -6.69451296	      1.10962075
      1.60833333	    -14.00574405	     -7.22698405	     13.13420208	      1.73336383	      0.91778804	      0.02222544	     41.60565443	      9.75507494	    -13.56024073	    -34.84095491	     13.50195013	     -8.52819816	      0.00000000	     56.76000221	     -8.44078716	      3.89823882	    -81.92413767	      7.64808860	    -16.31178282	      0.00000000	    -19.86088245	     -6.88912027	      1.14022519
      1.61666667	    -14.23158864	     -7.45352948	     13.00546174	      1.73363173	      0.91660067	      0.02322109	     41.96687855	      9.88003423	    -14.95879626	    -34.86300489	     13.19741734	     -9.31664973	      0.00000000	     56.76949399	     -8.76825707	      3.87961887	    -82.34586526	      7.73670618	    -16.79167318	      0.00000000	    -19.79975381	     -7.08286501	      1.17080211
      1.62500000	    -14.46928916	     -7.67076574	     12.88386450	      1.73379223	      0.91535956	      0.02416237	     42.32094421	      9.99739972	    -16.06204420	    -34.90123905	     13.18115516	     -9.55270809	      0.00000000	     56.77900230	     -9.06207007	      3.84399733	    -82.81015714	      7.89970703	    -17.11729092	      0.00000000	    -19.75051537	     -7.24367805	      1.19617838
      1.63333333	    -14.68711162	     -7.90830552	     12.75854116	      1.73389357	      0.91409646	      0.02510552	     42.62235375	     10.19800755	    -16.69689599	    -34.88370236	     13.21063917	     -9.70794336	      0.00000000	     56.76738404	     -9.36401894	      3.81143751	    -83.30511949	      7.92827982	    -17.58500158	      0.00000000	    -19.70368814	     -7.38942439	      1.21918576
      1.64166667	    -14.88761059	     -8.09616294	     12.68405129	      1.73389328	      0.91284182	      0.02588241	     42.87639574	     10.34979125	    -16.92316142	    -34.88014281	     13.46001579	     -9.50342319	      0.00000000	     56.70684950	     -9.55696044	      3.76424310	    -83.80168495	      7.72814756	    -18.24317609	      0.00000000	    -19.75728647	     -7.54111623	      1.24289758
      1.65000000	    -15.03049866	     -8.28035671	     12.66872099	      1.73385404	      0.91161911	      0.02647399	     43.03741425	     10.48129517	    -16.87931510	    -34.87188346	     14.02351046	     -8.72568498	      0.00000000	     56.58108592	     -9.68949783	      3.74396727	    -84.32468161	      7.62086423	    -18.65247017	      0.00000000	    -19.85989584	     -7.65290523	      1.26022063
      1.65833333	    -15.15643913	     -8.49295336	     12.71670296	      1.73375317	      0.91036775	      0.02691573	     43.15295144	     10.61611844	    -16.70063098	    -34.81222332	     14.66828602	     -7.88576008	      0.00000000	     56.45623446	     -9.77860731	      3.76984090	    -84.87563080	      7.55752642	    -18.83393842	      0.00000000	    -19.97148503	     -7.67753813	      1.26382850
      1.66666667	    -15.27513417	     -8.74011450	     12.82024301	      1.73357835	      0.90911308	      0.02723908	     43.24037141	     10.75987713	    -16.53120573	    -34.68180961	     15.26613369	     -7.23129532	      0.00000000	     56.34196010	     -9.83989532	      3.83086737	    -85.43741027	      7.49729694	    -18.89745399	      0.00000000	    -20.08613368	     -7.62653070	      1.25554757
      1.67500000	    -15.40942673	     -9.02666201	     12.94299220	      1.73331319	      0.90787989	      0.02749832	     43.33972116	     10.92301449	    -16.48244997	    -34.48777769	     15.74472194	     -6.86364996	      0.00000000	     56.25464864	     -9.90363183	      3.90244581	    -85.99669038	      7.45109013	    -18.87979081	      0.00000000	    -20.16550845	     -7.52750697	      1.23981033
